{"glyphs":{"あ":{"ha":1389,"x_min":86,"x_max":1303,"o":"m 86 407 l 174 407 l 174 493 l 260 493 l 260 579 l 344 579 l 344 664 l 517 664 l 517 907 l 174 907 l 174 1008 l 517 1008 l 517 1179 l 617 1179 l 617 1008 l 1218 1008 l 1218 907 l 617 907 l 617 750 l 875 750 l 875 664 l 946 664 l 946 750 l 1031 750 l 1031 836 l 1132 836 l 1132 735 l 1046 735 l 1046 664 l 1132 664 l 1132 579 l 1218 579 l 1218 493 l 1303 493 l 1303 135 l 1218 135 l 1218 49 l 1132 49 l 1132 -39 l 1046 -39 l 1046 -125 l 774 -125 l 774 -22 l 1031 -22 l 1031 64 l 1117 64 l 1117 149 l 1203 149 l 1203 478 l 1117 478 l 1117 564 l 960 564 l 960 478 l 875 478 l 875 306 l 789 306 l 789 221 l 703 221 l 703 135 l 617 135 l 617 64 l 703 64 l 703 -39 l 603 -39 l 603 49 l 446 49 l 446 -39 l 174 -39 l 174 49 l 86 49 l 86 407 m 688 235 l 688 321 l 774 321 l 774 493 l 860 493 l 860 650 l 617 650 l 617 235 l 688 235 m 431 64 l 431 149 l 517 149 l 517 564 l 360 564 l 360 478 l 274 478 l 274 392 l 189 392 l 189 64 l 431 64 z "},"い":{"ha":1389,"x_min":129,"x_max":1258,"o":"m 215 221 l 129 221 l 129 1008 l 229 1008 l 229 235 l 315 235 l 315 64 l 558 64 l 558 149 l 643 149 l 643 321 l 744 321 l 744 135 l 658 135 l 658 49 l 572 49 l 572 -39 l 300 -39 l 300 49 l 215 49 l 215 221 m 1072 650 l 986 650 l 986 821 l 901 821 l 901 1008 l 1001 1008 l 1001 836 l 1088 836 l 1088 664 l 1174 664 l 1174 407 l 1258 407 l 1258 135 l 1158 135 l 1158 392 l 1072 392 l 1072 650 z "},"う":{"ha":1389,"x_min":172,"x_max":1217,"o":"m 343 1093 l 874 1093 l 874 1008 l 1131 1008 l 1131 907 l 858 907 l 858 993 l 343 993 l 343 1093 m 258 64 l 772 64 l 772 149 l 944 149 l 944 235 l 1029 235 l 1029 321 l 1115 321 l 1115 564 l 1029 564 l 1029 650 l 444 650 l 444 564 l 172 564 l 172 664 l 429 664 l 429 750 l 1044 750 l 1044 664 l 1131 664 l 1131 579 l 1217 579 l 1217 306 l 1131 306 l 1131 221 l 1044 221 l 1044 135 l 958 135 l 958 49 l 788 49 l 788 -39 l 258 -39 l 258 64 z "},"え":{"ha":1389,"x_min":129,"x_max":1258,"o":"m 558 993 l 386 993 l 386 1093 l 572 1093 l 572 1008 l 1001 1008 l 1001 907 l 558 907 l 558 993 m 129 64 l 215 64 l 215 149 l 300 149 l 300 235 l 386 235 l 386 321 l 472 321 l 472 407 l 643 407 l 643 493 l 729 493 l 729 579 l 815 579 l 815 650 l 215 650 l 215 750 l 1088 750 l 1088 650 l 1001 650 l 1001 564 l 831 564 l 831 478 l 744 478 l 744 321 l 831 321 l 831 64 l 1258 64 l 1258 -39 l 815 -39 l 815 49 l 729 49 l 729 306 l 488 306 l 488 221 l 401 221 l 401 135 l 315 135 l 315 49 l 229 49 l 229 -39 l 129 -39 l 129 64 z "},"お":{"ha":1389,"x_min":43,"x_max":1346,"o":"m 131 135 l 43 135 l 43 321 l 131 321 l 131 407 l 217 407 l 217 493 l 301 493 l 301 579 l 474 579 l 474 821 l 131 821 l 131 922 l 474 922 l 474 1179 l 574 1179 l 574 922 l 832 922 l 832 821 l 574 821 l 574 664 l 1003 664 l 1003 579 l 1175 579 l 1175 493 l 1260 493 l 1260 135 l 1175 135 l 1175 49 l 1089 49 l 1089 -39 l 1003 -39 l 1003 -125 l 644 -125 l 644 -22 l 988 -22 l 988 64 l 1074 64 l 1074 149 l 1160 149 l 1160 478 l 988 478 l 988 564 l 574 564 l 574 49 l 489 49 l 489 -39 l 217 -39 l 217 49 l 131 49 l 131 135 m 903 1008 l 1089 1008 l 1089 922 l 1260 922 l 1260 836 l 1346 836 l 1346 735 l 1244 735 l 1244 821 l 1074 821 l 1074 907 l 903 907 l 903 1008 m 231 149 l 231 64 l 474 64 l 474 478 l 317 478 l 317 392 l 231 392 l 231 306 l 146 306 l 146 149 l 231 149 z "},"か":{"ha":1389,"x_min":86,"x_max":1301,"o":"m 86 149 l 172 149 l 172 321 l 257 321 l 257 579 l 343 579 l 343 735 l 86 735 l 86 836 l 429 836 l 429 1179 l 529 1179 l 529 836 l 788 836 l 788 750 l 872 750 l 872 221 l 788 221 l 788 49 l 701 49 l 701 -39 l 343 -39 l 343 64 l 686 64 l 686 235 l 772 235 l 772 735 l 444 735 l 444 564 l 358 564 l 358 306 l 272 306 l 272 135 l 186 135 l 186 -39 l 86 -39 l 86 149 m 1115 650 l 1029 650 l 1029 821 l 943 821 l 943 907 l 858 907 l 858 1008 l 958 1008 l 958 922 l 1044 922 l 1044 836 l 1131 836 l 1131 664 l 1215 664 l 1215 493 l 1301 493 l 1301 392 l 1200 392 l 1200 478 l 1115 478 l 1115 650 z "},"き":{"ha":1389,"x_min":172,"x_max":1217,"o":"m 258 321 l 343 321 l 343 407 l 944 407 l 944 478 l 858 478 l 858 564 l 172 564 l 172 664 l 772 664 l 772 735 l 686 735 l 686 821 l 172 821 l 172 922 l 601 922 l 601 993 l 515 993 l 515 1179 l 615 1179 l 615 1008 l 701 1008 l 701 922 l 858 922 l 858 1008 l 1131 1008 l 1131 907 l 874 907 l 874 821 l 788 821 l 788 750 l 874 750 l 874 664 l 944 664 l 944 750 l 1217 750 l 1217 650 l 958 650 l 958 493 l 1044 493 l 1044 407 l 1131 407 l 1131 321 l 1217 321 l 1217 221 l 1029 221 l 1029 306 l 358 306 l 358 64 l 1131 64 l 1131 -39 l 343 -39 l 343 49 l 258 49 l 258 321 z "},"く":{"ha":1389,"x_min":258,"x_max":1131,"o":"m 343 392 l 258 392 l 258 579 l 343 579 l 343 664 l 515 664 l 515 750 l 601 750 l 601 836 l 772 836 l 772 922 l 858 922 l 858 1008 l 944 1008 l 944 1093 l 1044 1093 l 1044 993 l 958 993 l 958 907 l 874 907 l 874 821 l 788 821 l 788 735 l 615 735 l 615 650 l 531 650 l 531 564 l 358 564 l 358 407 l 444 407 l 444 321 l 615 321 l 615 235 l 788 235 l 788 149 l 874 149 l 874 64 l 1044 64 l 1044 -22 l 1131 -22 l 1131 -125 l 1029 -125 l 1029 -39 l 858 -39 l 858 49 l 772 49 l 772 135 l 601 135 l 601 221 l 429 221 l 429 306 l 343 306 l 343 392 z "},"け":{"ha":1389,"x_min":129,"x_max":1258,"o":"m 729 -22 l 729 64 l 815 64 l 815 235 l 901 235 l 901 735 l 386 735 l 386 836 l 901 836 l 901 1093 l 1001 1093 l 1001 836 l 1258 836 l 1258 735 l 1001 735 l 1001 221 l 915 221 l 915 49 l 831 49 l 831 -39 l 744 -39 l 744 -125 l 558 -125 l 558 -22 l 729 -22 m 129 922 l 215 922 l 215 1093 l 315 1093 l 315 907 l 229 907 l 229 -125 l 129 -125 l 129 922 z "},"こ":{"ha":1389,"x_min":172,"x_max":1217,"o":"m 258 1008 l 1131 1008 l 1131 907 l 258 907 l 258 1008 m 172 321 l 258 321 l 258 407 l 358 407 l 358 306 l 272 306 l 272 149 l 444 149 l 444 64 l 1115 64 l 1115 149 l 1217 149 l 1217 49 l 1131 49 l 1131 -39 l 429 -39 l 429 49 l 258 49 l 258 135 l 172 135 l 172 321 z "},"さ":{"ha":1389,"x_min":128,"x_max":1260,"o":"m 215 321 l 301 321 l 301 407 l 386 407 l 386 493 l 988 493 l 988 564 l 901 564 l 901 650 l 815 650 l 815 735 l 128 735 l 128 836 l 729 836 l 729 907 l 644 907 l 644 993 l 558 993 l 558 1179 l 658 1179 l 658 1008 l 744 1008 l 744 922 l 831 922 l 831 836 l 988 836 l 988 922 l 1260 922 l 1260 821 l 1001 821 l 1001 735 l 917 735 l 917 664 l 1001 664 l 1001 579 l 1088 579 l 1088 493 l 1174 493 l 1174 407 l 1260 407 l 1260 306 l 988 306 l 988 392 l 401 392 l 401 306 l 315 306 l 315 149 l 401 149 l 401 64 l 1072 64 l 1072 149 l 1174 149 l 1174 49 l 1088 49 l 1088 -39 l 386 -39 l 386 49 l 301 49 l 301 135 l 215 135 l 215 321 m 1072 407 l 1072 478 l 1001 478 l 1001 407 l 1072 407 z "},"し":{"ha":1389,"x_min":172,"x_max":1215,"o":"m 172 1093 l 272 1093 l 272 149 l 358 149 l 358 64 l 772 64 l 772 149 l 943 149 l 943 235 l 1029 235 l 1029 321 l 1115 321 l 1115 407 l 1215 407 l 1215 306 l 1131 306 l 1131 221 l 1044 221 l 1044 135 l 958 135 l 958 49 l 788 49 l 788 -39 l 343 -39 l 343 49 l 257 49 l 257 135 l 172 135 l 172 1093 z "},"す":{"ha":1389,"x_min":86,"x_max":1303,"o":"m 603 -22 l 603 64 l 688 64 l 688 149 l 774 149 l 774 306 l 703 306 l 703 221 l 431 221 l 431 306 l 344 306 l 344 579 l 431 579 l 431 664 l 703 664 l 703 579 l 774 579 l 774 821 l 86 821 l 86 922 l 774 922 l 774 1179 l 875 1179 l 875 922 l 1303 922 l 1303 821 l 875 821 l 875 135 l 789 135 l 789 49 l 703 49 l 703 -39 l 617 -39 l 617 -125 l 431 -125 l 431 -22 l 603 -22 m 688 321 l 688 407 l 774 407 l 774 478 l 688 478 l 688 564 l 446 564 l 446 321 l 688 321 z "},"せ":{"ha":1389,"x_min":86,"x_max":1303,"o":"m 344 650 l 86 650 l 86 750 l 344 750 l 344 1093 l 446 1093 l 446 750 l 946 750 l 946 1093 l 1046 1093 l 1046 750 l 1303 750 l 1303 650 l 1046 650 l 1046 306 l 960 306 l 960 221 l 688 221 l 688 321 l 946 321 l 946 650 l 446 650 l 446 149 l 532 149 l 532 64 l 1132 64 l 1132 -39 l 517 -39 l 517 49 l 431 49 l 431 135 l 344 135 l 344 650 z "},"そ":{"ha":1389,"x_min":86,"x_max":1303,"o":"m 431 321 l 517 321 l 517 407 l 603 407 l 603 493 l 774 493 l 774 564 l 532 564 l 532 478 l 86 478 l 86 579 l 344 579 l 344 664 l 517 664 l 517 750 l 603 750 l 603 836 l 774 836 l 774 922 l 860 922 l 860 993 l 344 993 l 344 1093 l 1132 1093 l 1132 993 l 1046 993 l 1046 907 l 875 907 l 875 821 l 789 821 l 789 735 l 617 735 l 617 664 l 1303 664 l 1303 564 l 960 564 l 960 478 l 789 478 l 789 392 l 617 392 l 617 306 l 532 306 l 532 64 l 617 64 l 617 -22 l 1132 -22 l 1132 -125 l 603 -125 l 603 -39 l 517 -39 l 517 49 l 431 49 l 431 321 z "},"た":{"ha":1389,"x_min":129,"x_max":1258,"o":"m 129 149 l 215 149 l 215 407 l 300 407 l 300 750 l 386 750 l 386 821 l 129 821 l 129 922 l 386 922 l 386 1179 l 488 1179 l 488 922 l 915 922 l 915 821 l 488 821 l 488 735 l 401 735 l 401 392 l 315 392 l 315 135 l 229 135 l 229 -39 l 129 -39 l 129 149 m 643 664 l 1258 664 l 1258 564 l 643 564 l 643 664 m 558 235 l 643 235 l 643 321 l 744 321 l 744 221 l 658 221 l 658 64 l 1258 64 l 1258 -39 l 643 -39 l 643 49 l 558 49 l 558 235 z "},"ち":{"ha":1389,"x_min":172,"x_max":1217,"o":"m 343 64 l 944 64 l 944 149 l 1115 149 l 1115 392 l 1029 392 l 1029 478 l 531 478 l 531 392 l 358 392 l 358 306 l 258 306 l 258 493 l 343 493 l 343 664 l 429 664 l 429 821 l 172 821 l 172 922 l 515 922 l 515 1008 l 601 1008 l 601 1179 l 701 1179 l 701 993 l 615 993 l 615 922 l 1131 922 l 1131 821 l 531 821 l 531 650 l 444 650 l 444 493 l 515 493 l 515 579 l 1044 579 l 1044 493 l 1131 493 l 1131 407 l 1217 407 l 1217 135 l 1131 135 l 1131 49 l 958 49 l 958 -39 l 343 -39 l 343 64 z "},"つ":{"ha":1389,"x_min":86,"x_max":1303,"o":"m 344 64 l 774 64 l 774 149 l 1031 149 l 1031 235 l 1117 235 l 1117 321 l 1203 321 l 1203 650 l 1117 650 l 1117 735 l 1031 735 l 1031 821 l 446 821 l 446 735 l 86 735 l 86 836 l 431 836 l 431 922 l 1046 922 l 1046 836 l 1132 836 l 1132 750 l 1218 750 l 1218 664 l 1303 664 l 1303 306 l 1218 306 l 1218 221 l 1132 221 l 1132 135 l 1046 135 l 1046 49 l 789 49 l 789 -39 l 344 -39 l 344 64 z "},"て":{"ha":1389,"x_min":86,"x_max":1303,"o":"m 431 579 l 517 579 l 517 664 l 603 664 l 603 750 l 688 750 l 688 836 l 774 836 l 774 907 l 86 907 l 86 1008 l 1303 1008 l 1303 907 l 960 907 l 960 821 l 789 821 l 789 735 l 703 735 l 703 650 l 617 650 l 617 564 l 532 564 l 532 235 l 617 235 l 617 149 l 703 149 l 703 64 l 1132 64 l 1132 -39 l 688 -39 l 688 49 l 517 49 l 517 221 l 431 221 l 431 579 z "},"と":{"ha":1389,"x_min":172,"x_max":1217,"o":"m 172 407 l 258 407 l 258 493 l 343 493 l 343 579 l 515 579 l 515 1179 l 615 1179 l 615 664 l 772 664 l 772 750 l 1217 750 l 1217 650 l 788 650 l 788 564 l 531 564 l 531 478 l 358 478 l 358 392 l 272 392 l 272 149 l 444 149 l 444 64 l 1217 64 l 1217 -39 l 429 -39 l 429 49 l 258 49 l 258 135 l 172 135 l 172 407 z "},"な":{"ha":1389,"x_min":86,"x_max":1301,"o":"m 86 235 l 172 235 l 172 407 l 257 407 l 257 579 l 343 579 l 343 750 l 429 750 l 429 821 l 86 821 l 86 922 l 429 922 l 429 1008 l 515 1008 l 515 1179 l 615 1179 l 615 993 l 529 993 l 529 922 l 788 922 l 788 821 l 529 821 l 529 735 l 444 735 l 444 564 l 358 564 l 358 392 l 272 392 l 272 221 l 186 221 l 186 135 l 86 135 l 86 235 m 858 922 l 1215 922 l 1215 836 l 1301 836 l 1301 735 l 1200 735 l 1200 821 l 858 821 l 858 922 m 429 235 l 515 235 l 515 321 l 858 321 l 858 664 l 958 664 l 958 235 l 1044 235 l 1044 149 l 1131 149 l 1131 64 l 1215 64 l 1215 -39 l 1115 -39 l 1115 49 l 1029 49 l 1029 135 l 958 135 l 958 49 l 872 49 l 872 -39 l 788 -39 l 788 -125 l 515 -125 l 515 -39 l 429 -39 l 429 235 m 772 -22 l 772 64 l 858 64 l 858 221 l 529 221 l 529 -22 l 772 -22 z "},"に":{"ha":1389,"x_min":172,"x_max":1217,"o":"m 172 836 l 258 836 l 258 1093 l 358 1093 l 358 821 l 272 821 l 272 -39 l 172 -39 l 172 836 m 515 922 l 1217 922 l 1217 821 l 515 821 l 515 922 m 515 321 l 615 321 l 615 149 l 701 149 l 701 64 l 1217 64 l 1217 -39 l 686 -39 l 686 49 l 601 49 l 601 135 l 515 135 l 515 321 z "},"ぬ":{"ha":1389,"x_min":43,"x_max":1346,"o":"m 43 493 l 131 493 l 131 664 l 217 664 l 217 1093 l 317 1093 l 317 836 l 388 836 l 388 922 l 731 922 l 731 1008 l 817 1008 l 817 1179 l 917 1179 l 917 993 l 832 993 l 832 922 l 1003 922 l 1003 836 l 1175 836 l 1175 664 l 1260 664 l 1260 64 l 1346 64 l 1346 -39 l 1244 -39 l 1244 49 l 1089 49 l 1089 -39 l 731 -39 l 731 49 l 644 49 l 644 235 l 731 235 l 731 321 l 1089 321 l 1089 235 l 1160 235 l 1160 650 l 1074 650 l 1074 735 l 988 735 l 988 821 l 832 821 l 832 735 l 746 735 l 746 564 l 660 564 l 660 478 l 574 478 l 574 392 l 489 392 l 489 149 l 574 149 l 574 49 l 474 49 l 474 135 l 403 135 l 403 49 l 317 49 l 317 -39 l 131 -39 l 131 49 l 43 49 l 43 493 m 474 407 l 474 493 l 560 493 l 560 579 l 644 579 l 644 750 l 731 750 l 731 821 l 403 821 l 403 735 l 317 735 l 317 664 l 403 664 l 403 407 l 474 407 m 301 64 l 301 235 l 388 235 l 388 392 l 301 392 l 301 650 l 231 650 l 231 478 l 146 478 l 146 64 l 301 64 m 1074 64 l 1074 221 l 746 221 l 746 64 l 1074 64 z "},"ね":{"ha":1389,"x_min":43,"x_max":1346,"o":"m 43 235 l 131 235 l 131 321 l 217 321 l 217 493 l 301 493 l 301 650 l 43 650 l 43 750 l 301 750 l 301 1179 l 403 1179 l 403 579 l 474 579 l 474 664 l 560 664 l 560 750 l 644 750 l 644 836 l 817 836 l 817 922 l 1089 922 l 1089 836 l 1175 836 l 1175 750 l 1260 750 l 1260 221 l 1175 221 l 1175 149 l 1260 149 l 1260 64 l 1346 64 l 1346 -39 l 1244 -39 l 1244 49 l 1089 49 l 1089 -39 l 644 -39 l 644 49 l 560 49 l 560 235 l 644 235 l 644 321 l 1003 321 l 1003 235 l 1160 235 l 1160 735 l 1074 735 l 1074 821 l 832 821 l 832 735 l 660 735 l 660 650 l 574 650 l 574 564 l 489 564 l 489 478 l 403 478 l 403 -125 l 301 -125 l 301 306 l 231 306 l 231 221 l 146 221 l 146 49 l 43 49 l 43 235 m 988 64 l 988 221 l 660 221 l 660 64 l 988 64 z "},"の":{"ha":1389,"x_min":86,"x_max":1303,"o":"m 174 135 l 86 135 l 86 579 l 174 579 l 174 750 l 260 750 l 260 836 l 344 836 l 344 922 l 517 922 l 517 1008 l 960 1008 l 960 922 l 1132 922 l 1132 836 l 1218 836 l 1218 664 l 1303 664 l 1303 221 l 1218 221 l 1218 49 l 1132 49 l 1132 -39 l 960 -39 l 960 -125 l 688 -125 l 688 -22 l 946 -22 l 946 64 l 1117 64 l 1117 235 l 1203 235 l 1203 650 l 1117 650 l 1117 821 l 946 821 l 946 907 l 789 907 l 789 650 l 703 650 l 703 392 l 617 392 l 617 221 l 532 221 l 532 49 l 446 49 l 446 -39 l 260 -39 l 260 49 l 174 49 l 174 135 m 274 149 l 274 64 l 431 64 l 431 235 l 517 235 l 517 407 l 603 407 l 603 664 l 688 664 l 688 907 l 532 907 l 532 821 l 360 821 l 360 735 l 274 735 l 274 564 l 189 564 l 189 149 l 274 149 z "},"は":{"ha":1389,"x_min":129,"x_max":1258,"o":"m 386 235 l 472 235 l 472 321 l 901 321 l 901 735 l 386 735 l 386 836 l 901 836 l 901 1093 l 1001 1093 l 1001 836 l 1258 836 l 1258 735 l 1001 735 l 1001 235 l 1088 235 l 1088 149 l 1174 149 l 1174 64 l 1258 64 l 1258 -39 l 1158 -39 l 1158 49 l 1072 49 l 1072 135 l 1001 135 l 1001 49 l 915 49 l 915 -39 l 472 -39 l 472 49 l 386 49 l 386 235 m 129 922 l 215 922 l 215 1093 l 315 1093 l 315 907 l 229 907 l 229 -39 l 129 -39 l 129 922 m 901 64 l 901 221 l 488 221 l 488 64 l 901 64 z "},"ひ":{"ha":1389,"x_min":43,"x_max":1346,"o":"m 131 579 l 217 579 l 217 750 l 301 750 l 301 836 l 388 836 l 388 907 l 43 907 l 43 1008 l 660 1008 l 660 907 l 489 907 l 489 821 l 403 821 l 403 735 l 317 735 l 317 564 l 231 564 l 231 149 l 317 149 l 317 64 l 731 64 l 731 149 l 817 149 l 817 235 l 903 235 l 903 407 l 988 407 l 988 821 l 903 821 l 903 1008 l 1003 1008 l 1003 836 l 1089 836 l 1089 664 l 1175 664 l 1175 579 l 1260 579 l 1260 493 l 1346 493 l 1346 392 l 1244 392 l 1244 478 l 1160 478 l 1160 564 l 1089 564 l 1089 392 l 1003 392 l 1003 221 l 917 221 l 917 135 l 832 135 l 832 49 l 746 49 l 746 -39 l 301 -39 l 301 49 l 217 49 l 217 135 l 131 135 l 131 579 z "},"ふ":{"ha":1389,"x_min":86,"x_max":1303,"o":"m 431 1093 l 703 1093 l 703 1008 l 960 1008 l 960 922 l 1046 922 l 1046 821 l 946 821 l 946 907 l 688 907 l 688 993 l 431 993 l 431 1093 m 344 149 l 446 149 l 446 64 l 774 64 l 774 149 l 860 149 l 860 478 l 774 478 l 774 564 l 603 564 l 603 650 l 517 650 l 517 750 l 617 750 l 617 664 l 789 664 l 789 579 l 875 579 l 875 493 l 960 493 l 960 135 l 875 135 l 875 49 l 789 49 l 789 -39 l 431 -39 l 431 49 l 344 49 l 344 149 m 86 235 l 174 235 l 174 407 l 260 407 l 260 579 l 360 579 l 360 392 l 274 392 l 274 221 l 189 221 l 189 49 l 86 49 l 86 235 m 1031 579 l 1132 579 l 1132 493 l 1218 493 l 1218 321 l 1303 321 l 1303 49 l 1203 49 l 1203 306 l 1117 306 l 1117 478 l 1031 478 l 1031 579 z "},"へ":{"ha":1389,"x_min":86,"x_max":1303,"o":"m 86 407 l 174 407 l 174 579 l 260 579 l 260 664 l 344 664 l 344 836 l 431 836 l 431 922 l 617 922 l 617 836 l 703 836 l 703 750 l 789 750 l 789 664 l 875 664 l 875 493 l 960 493 l 960 407 l 1046 407 l 1046 321 l 1132 321 l 1132 149 l 1218 149 l 1218 64 l 1303 64 l 1303 -39 l 1203 -39 l 1203 49 l 1117 49 l 1117 135 l 1031 135 l 1031 306 l 946 306 l 946 392 l 860 392 l 860 478 l 774 478 l 774 650 l 688 650 l 688 735 l 603 735 l 603 821 l 446 821 l 446 650 l 360 650 l 360 564 l 274 564 l 274 392 l 189 392 l 189 306 l 86 306 l 86 407 z "},"ほ":{"ha":1389,"x_min":129,"x_max":1258,"o":"m 129 922 l 215 922 l 215 1093 l 315 1093 l 315 907 l 229 907 l 229 -39 l 129 -39 l 129 922 m 386 235 l 472 235 l 472 321 l 901 321 l 901 564 l 386 564 l 386 664 l 901 664 l 901 907 l 386 907 l 386 1008 l 1258 1008 l 1258 907 l 1001 907 l 1001 664 l 1258 664 l 1258 564 l 1001 564 l 1001 235 l 1088 235 l 1088 149 l 1174 149 l 1174 64 l 1258 64 l 1258 -39 l 1158 -39 l 1158 49 l 1072 49 l 1072 135 l 1001 135 l 1001 49 l 915 49 l 915 -39 l 472 -39 l 472 49 l 386 49 l 386 235 m 901 64 l 901 221 l 488 221 l 488 64 l 901 64 z "},"ま":{"ha":1389,"x_min":172,"x_max":1217,"o":"m 172 235 l 258 235 l 258 321 l 686 321 l 686 564 l 172 564 l 172 664 l 686 664 l 686 821 l 172 821 l 172 922 l 686 922 l 686 1179 l 788 1179 l 788 922 l 1217 922 l 1217 821 l 788 821 l 788 664 l 1217 664 l 1217 564 l 788 564 l 788 235 l 958 235 l 958 149 l 1044 149 l 1044 64 l 1131 64 l 1131 -22 l 1217 -22 l 1217 -125 l 1115 -125 l 1115 -39 l 1029 -39 l 1029 49 l 944 49 l 944 135 l 788 135 l 788 -39 l 701 -39 l 701 -125 l 258 -125 l 258 -39 l 172 -39 l 172 235 m 686 -22 l 686 221 l 272 221 l 272 -22 l 686 -22 z "},"み":{"ha":1389,"x_min":43,"x_max":1346,"o":"m 43 321 l 131 321 l 131 407 l 217 407 l 217 493 l 388 493 l 388 579 l 560 579 l 560 664 l 644 664 l 644 836 l 731 836 l 731 907 l 301 907 l 301 1008 l 832 1008 l 832 821 l 746 821 l 746 650 l 660 650 l 660 579 l 917 579 l 917 493 l 1074 493 l 1074 750 l 1175 750 l 1175 407 l 1260 407 l 1260 321 l 1346 321 l 1346 221 l 1244 221 l 1244 306 l 1089 306 l 1089 135 l 1003 135 l 1003 49 l 917 49 l 917 -39 l 832 -39 l 832 -125 l 644 -125 l 644 -22 l 817 -22 l 817 64 l 903 64 l 903 149 l 988 149 l 988 321 l 1074 321 l 1074 392 l 903 392 l 903 478 l 574 478 l 574 306 l 489 306 l 489 135 l 403 135 l 403 49 l 317 49 l 317 -39 l 131 -39 l 131 49 l 43 49 l 43 321 m 301 64 l 301 149 l 388 149 l 388 321 l 474 321 l 474 478 l 403 478 l 403 392 l 231 392 l 231 306 l 146 306 l 146 64 l 301 64 z "},"む":{"ha":1389,"x_min":129,"x_max":1258,"o":"m 215 221 l 129 221 l 129 579 l 215 579 l 215 664 l 386 664 l 386 821 l 129 821 l 129 922 l 386 922 l 386 1179 l 488 1179 l 488 922 l 831 922 l 831 821 l 488 821 l 488 221 l 401 221 l 401 -22 l 986 -22 l 986 64 l 1072 64 l 1072 306 l 986 306 l 986 407 l 1088 407 l 1088 321 l 1174 321 l 1174 49 l 1088 49 l 1088 -39 l 1001 -39 l 1001 -125 l 386 -125 l 386 -39 l 300 -39 l 300 135 l 215 135 l 215 221 m 1158 735 l 1072 735 l 1072 821 l 986 821 l 986 907 l 901 907 l 901 1008 l 1001 1008 l 1001 922 l 1088 922 l 1088 836 l 1174 836 l 1174 750 l 1258 750 l 1258 564 l 1158 564 l 1158 735 m 386 235 l 386 564 l 229 564 l 229 235 l 386 235 z "},"も":{"ha":1389,"x_min":86,"x_max":1303,"o":"m 344 478 l 86 478 l 86 579 l 344 579 l 344 821 l 174 821 l 174 922 l 431 922 l 431 1179 l 532 1179 l 532 922 l 875 922 l 875 821 l 446 821 l 446 579 l 875 579 l 875 478 l 446 478 l 446 64 l 532 64 l 532 -22 l 1031 -22 l 1031 64 l 1117 64 l 1117 149 l 1203 149 l 1203 478 l 1117 478 l 1117 650 l 1031 650 l 1031 750 l 1132 750 l 1132 664 l 1218 664 l 1218 493 l 1303 493 l 1303 135 l 1218 135 l 1218 49 l 1132 49 l 1132 -39 l 1046 -39 l 1046 -125 l 517 -125 l 517 -39 l 431 -39 l 431 49 l 344 49 l 344 478 z "},"や":{"ha":1389,"x_min":86,"x_max":1303,"o":"m 431 478 l 344 478 l 344 564 l 189 564 l 189 478 l 86 478 l 86 579 l 174 579 l 174 664 l 344 664 l 344 821 l 260 821 l 260 1093 l 360 1093 l 360 836 l 446 836 l 446 750 l 603 750 l 603 836 l 774 836 l 774 993 l 688 993 l 688 1179 l 789 1179 l 789 1008 l 875 1008 l 875 836 l 1132 836 l 1132 750 l 1218 750 l 1218 664 l 1303 664 l 1303 392 l 1218 392 l 1218 306 l 1046 306 l 1046 221 l 688 221 l 688 321 l 1031 321 l 1031 407 l 1203 407 l 1203 650 l 1117 650 l 1117 735 l 617 735 l 617 650 l 446 650 l 446 493 l 532 493 l 532 149 l 617 149 l 617 -125 l 517 -125 l 517 135 l 431 135 l 431 478 z "},"ゆ":{"ha":1389,"x_min":129,"x_max":1258,"o":"m 129 1093 l 229 1093 l 229 579 l 300 579 l 300 750 l 386 750 l 386 836 l 472 836 l 472 922 l 558 922 l 558 1008 l 729 1008 l 729 1179 l 831 1179 l 831 1008 l 1001 1008 l 1001 922 l 1174 922 l 1174 750 l 1258 750 l 1258 306 l 1174 306 l 1174 221 l 1088 221 l 1088 135 l 1001 135 l 1001 49 l 658 49 l 658 -39 l 488 -39 l 488 -125 l 300 -125 l 300 -22 l 472 -22 l 472 64 l 558 64 l 558 135 l 472 135 l 472 221 l 386 221 l 386 321 l 488 321 l 488 235 l 572 235 l 572 149 l 643 149 l 643 321 l 729 321 l 729 907 l 572 907 l 572 821 l 488 821 l 488 735 l 401 735 l 401 564 l 315 564 l 315 392 l 229 392 l 229 135 l 129 135 l 129 1093 m 986 149 l 986 235 l 1072 235 l 1072 321 l 1158 321 l 1158 735 l 1072 735 l 1072 821 l 986 821 l 986 907 l 831 907 l 831 306 l 744 306 l 744 149 l 986 149 z "},"よ":{"ha":1389,"x_min":129,"x_max":1258,"o":"m 129 321 l 215 321 l 215 407 l 643 407 l 643 1179 l 744 1179 l 744 836 l 1174 836 l 1174 735 l 744 735 l 744 321 l 915 321 l 915 235 l 1088 235 l 1088 149 l 1174 149 l 1174 64 l 1258 64 l 1258 -39 l 1158 -39 l 1158 49 l 1072 49 l 1072 135 l 901 135 l 901 221 l 744 221 l 744 49 l 658 49 l 658 -39 l 215 -39 l 215 49 l 129 49 l 129 321 m 643 64 l 643 306 l 229 306 l 229 64 l 643 64 z "},"ら":{"ha":1389,"x_min":215,"x_max":1174,"o":"m 300 1093 l 831 1093 l 831 1008 l 1001 1008 l 1001 907 l 815 907 l 815 993 l 300 993 l 300 1093 m 300 64 l 901 64 l 901 149 l 1072 149 l 1072 392 l 986 392 l 986 478 l 572 478 l 572 392 l 401 392 l 401 306 l 215 306 l 215 664 l 300 664 l 300 836 l 401 836 l 401 650 l 315 650 l 315 407 l 386 407 l 386 493 l 558 493 l 558 579 l 1001 579 l 1001 493 l 1088 493 l 1088 407 l 1174 407 l 1174 135 l 1088 135 l 1088 49 l 915 49 l 915 -39 l 300 -39 l 300 64 z "},"る":{"ha":1389,"x_min":172,"x_max":1217,"o":"m 258 235 l 343 235 l 343 321 l 615 321 l 615 235 l 701 235 l 701 64 l 944 64 l 944 149 l 1029 149 l 1029 235 l 1115 235 l 1115 392 l 1029 392 l 1029 478 l 444 478 l 444 392 l 272 392 l 272 306 l 172 306 l 172 407 l 258 407 l 258 493 l 429 493 l 429 579 l 515 579 l 515 664 l 601 664 l 601 750 l 772 750 l 772 836 l 858 836 l 858 907 l 258 907 l 258 1008 l 1044 1008 l 1044 907 l 958 907 l 958 821 l 874 821 l 874 735 l 788 735 l 788 650 l 615 650 l 615 579 l 1044 579 l 1044 493 l 1131 493 l 1131 407 l 1217 407 l 1217 221 l 1131 221 l 1131 49 l 958 49 l 958 -39 l 343 -39 l 343 49 l 258 49 l 258 235 m 601 64 l 601 221 l 358 221 l 358 64 l 601 64 z "},"ろ":{"ha":1389,"x_min":128,"x_max":1260,"o":"m 215 64 l 988 64 l 988 149 l 1158 149 l 1158 392 l 1072 392 l 1072 478 l 574 478 l 574 392 l 315 392 l 315 306 l 128 306 l 128 407 l 215 407 l 215 493 l 386 493 l 386 579 l 472 579 l 472 664 l 558 664 l 558 750 l 729 750 l 729 836 l 815 836 l 815 907 l 301 907 l 301 1008 l 1088 1008 l 1088 907 l 917 907 l 917 821 l 831 821 l 831 735 l 744 735 l 744 650 l 574 650 l 574 579 l 1088 579 l 1088 493 l 1174 493 l 1174 407 l 1260 407 l 1260 135 l 1174 135 l 1174 49 l 1001 49 l 1001 -39 l 215 -39 l 215 64 m 558 493 l 558 564 l 488 564 l 488 493 l 558 493 z "},"わ":{"ha":1389,"x_min":86,"x_max":1303,"o":"m 86 235 l 174 235 l 174 407 l 260 407 l 260 579 l 344 579 l 344 821 l 86 821 l 86 922 l 344 922 l 344 1179 l 446 1179 l 446 750 l 517 750 l 517 836 l 688 836 l 688 922 l 1046 922 l 1046 836 l 1218 836 l 1218 664 l 1303 664 l 1303 221 l 1218 221 l 1218 135 l 1132 135 l 1132 49 l 1046 49 l 1046 -39 l 875 -39 l 875 -125 l 603 -125 l 603 -22 l 860 -22 l 860 64 l 1031 64 l 1031 149 l 1117 149 l 1117 235 l 1203 235 l 1203 650 l 1117 650 l 1117 735 l 1031 735 l 1031 821 l 703 821 l 703 735 l 532 735 l 532 650 l 446 650 l 446 -125 l 344 -125 l 344 392 l 274 392 l 274 221 l 189 221 l 189 -39 l 86 -39 l 86 235 z "},"を":{"ha":1389,"x_min":129,"x_max":1258,"o":"m 129 321 l 215 321 l 215 493 l 300 493 l 300 579 l 386 579 l 386 750 l 472 750 l 472 821 l 129 821 l 129 922 l 558 922 l 558 1179 l 658 1179 l 658 922 l 1088 922 l 1088 821 l 572 821 l 572 750 l 744 750 l 744 664 l 831 664 l 831 493 l 901 493 l 901 579 l 1072 579 l 1072 664 l 1258 664 l 1258 564 l 1088 564 l 1088 478 l 915 478 l 915 392 l 831 392 l 831 49 l 729 49 l 729 306 l 572 306 l 572 221 l 488 221 l 488 -22 l 1174 -22 l 1174 -125 l 472 -125 l 472 -39 l 386 -39 l 386 235 l 472 235 l 472 321 l 558 321 l 558 407 l 729 407 l 729 650 l 488 650 l 488 564 l 401 564 l 401 478 l 315 478 l 315 306 l 229 306 l 229 221 l 129 221 l 129 321 z "},"ん":{"ha":1389,"x_min":86,"x_max":1303,"o":"m 86 149 l 174 149 l 174 321 l 260 321 l 260 579 l 344 579 l 344 750 l 431 750 l 431 922 l 517 922 l 517 1179 l 617 1179 l 617 907 l 532 907 l 532 735 l 446 735 l 446 564 l 360 564 l 360 407 l 431 407 l 431 493 l 517 493 l 517 579 l 703 579 l 703 493 l 789 493 l 789 64 l 1031 64 l 1031 149 l 1117 149 l 1117 321 l 1203 321 l 1203 579 l 1303 579 l 1303 306 l 1218 306 l 1218 135 l 1132 135 l 1132 49 l 1046 49 l 1046 -39 l 774 -39 l 774 49 l 688 49 l 688 478 l 532 478 l 532 392 l 446 392 l 446 306 l 360 306 l 360 221 l 274 221 l 274 135 l 189 135 l 189 -39 l 86 -39 l 86 149 z "},"ア":{"ha":1389,"x_min":129,"x_max":1258,"o":"m 815 493 l 901 493 l 901 579 l 986 579 l 986 664 l 1072 664 l 1072 836 l 1158 836 l 1158 993 l 129 993 l 129 1093 l 1258 1093 l 1258 821 l 1174 821 l 1174 650 l 1088 650 l 1088 564 l 1001 564 l 1001 478 l 915 478 l 915 392 l 815 392 l 815 493 m 129 64 l 300 64 l 300 149 l 386 149 l 386 235 l 472 235 l 472 407 l 558 407 l 558 836 l 658 836 l 658 392 l 572 392 l 572 221 l 488 221 l 488 135 l 401 135 l 401 49 l 315 49 l 315 -39 l 129 -39 l 129 64 z "},"イ":{"ha":1389,"x_min":128,"x_max":1260,"o":"m 128 407 l 301 407 l 301 493 l 472 493 l 472 579 l 644 579 l 644 664 l 729 664 l 729 750 l 815 750 l 815 836 l 901 836 l 901 922 l 988 922 l 988 1008 l 1072 1008 l 1072 1093 l 1158 1093 l 1158 1179 l 1260 1179 l 1260 1079 l 1174 1079 l 1174 993 l 1088 993 l 1088 907 l 1001 907 l 1001 821 l 917 821 l 917 -125 l 815 -125 l 815 650 l 744 650 l 744 564 l 658 564 l 658 478 l 488 478 l 488 392 l 315 392 l 315 306 l 128 306 l 128 407 z "},"ウ":{"ha":1389,"x_min":172,"x_max":1217,"o":"m 515 -22 l 515 64 l 772 64 l 772 149 l 858 149 l 858 235 l 944 235 l 944 321 l 1029 321 l 1029 493 l 1115 493 l 1115 821 l 272 821 l 272 392 l 172 392 l 172 922 l 601 922 l 601 1179 l 701 1179 l 701 922 l 1217 922 l 1217 478 l 1131 478 l 1131 306 l 1044 306 l 1044 221 l 958 221 l 958 135 l 874 135 l 874 49 l 788 49 l 788 -39 l 531 -39 l 531 -125 l 258 -125 l 258 -22 l 515 -22 z "},"エ":{"ha":1389,"x_min":43,"x_max":1346,"o":"m 43 64 l 644 64 l 644 907 l 131 907 l 131 1008 l 1260 1008 l 1260 907 l 746 907 l 746 64 l 1346 64 l 1346 -39 l 43 -39 l 43 64 z "},"オ":{"ha":1389,"x_min":86,"x_max":1303,"o":"m 86 64 l 174 64 l 174 149 l 344 149 l 344 235 l 431 235 l 431 321 l 517 321 l 517 407 l 603 407 l 603 493 l 688 493 l 688 579 l 774 579 l 774 664 l 860 664 l 860 735 l 86 735 l 86 836 l 946 836 l 946 1179 l 1046 1179 l 1046 836 l 1303 836 l 1303 735 l 1046 735 l 1046 -39 l 960 -39 l 960 -125 l 603 -125 l 603 -22 l 946 -22 l 946 650 l 875 650 l 875 564 l 789 564 l 789 478 l 703 478 l 703 392 l 617 392 l 617 306 l 532 306 l 532 221 l 446 221 l 446 135 l 360 135 l 360 49 l 189 49 l 189 -39 l 86 -39 l 86 64 z "},"カ":{"ha":1389,"x_min":172,"x_max":1217,"o":"m 172 64 l 258 64 l 258 149 l 343 149 l 343 235 l 429 235 l 429 407 l 515 407 l 515 664 l 601 664 l 601 821 l 172 821 l 172 922 l 601 922 l 601 1179 l 701 1179 l 701 922 l 1217 922 l 1217 135 l 1131 135 l 1131 49 l 1044 49 l 1044 -39 l 686 -39 l 686 64 l 1029 64 l 1029 149 l 1115 149 l 1115 821 l 701 821 l 701 650 l 615 650 l 615 392 l 531 392 l 531 221 l 444 221 l 444 135 l 358 135 l 358 49 l 272 49 l 272 -39 l 172 -39 l 172 64 z "},"キ":{"ha":1389,"x_min":86,"x_max":1303,"o":"m 86 407 l 603 407 l 603 735 l 86 735 l 86 836 l 517 836 l 517 1179 l 617 1179 l 617 922 l 1132 922 l 1132 821 l 703 821 l 703 493 l 1303 493 l 1303 392 l 789 392 l 789 -125 l 688 -125 l 688 306 l 86 306 l 86 407 z "},"ク":{"ha":1389,"x_min":172,"x_max":1217,"o":"m 429 -22 l 429 64 l 601 64 l 601 149 l 772 149 l 772 235 l 858 235 l 858 321 l 944 321 l 944 493 l 1029 493 l 1029 664 l 1115 664 l 1115 821 l 531 821 l 531 650 l 444 650 l 444 564 l 358 564 l 358 478 l 272 478 l 272 392 l 172 392 l 172 493 l 258 493 l 258 579 l 343 579 l 343 664 l 429 664 l 429 836 l 515 836 l 515 1008 l 601 1008 l 601 1179 l 701 1179 l 701 993 l 615 993 l 615 922 l 1217 922 l 1217 650 l 1131 650 l 1131 478 l 1044 478 l 1044 306 l 958 306 l 958 221 l 874 221 l 874 135 l 788 135 l 788 49 l 615 49 l 615 -39 l 444 -39 l 444 -125 l 172 -125 l 172 -22 l 429 -22 z "},"ケ":{"ha":1389,"x_min":86,"x_max":1303,"o":"m 431 -22 l 431 64 l 603 64 l 603 149 l 688 149 l 688 321 l 774 321 l 774 493 l 860 493 l 860 735 l 360 735 l 360 564 l 274 564 l 274 478 l 189 478 l 189 392 l 86 392 l 86 493 l 174 493 l 174 579 l 260 579 l 260 750 l 344 750 l 344 922 l 431 922 l 431 1093 l 532 1093 l 532 907 l 446 907 l 446 836 l 1303 836 l 1303 735 l 960 735 l 960 478 l 875 478 l 875 306 l 789 306 l 789 135 l 703 135 l 703 49 l 617 49 l 617 -39 l 446 -39 l 446 -125 l 260 -125 l 260 -22 l 431 -22 z "},"コ":{"ha":1389,"x_min":172,"x_max":1217,"o":"m 172 64 l 1115 64 l 1115 821 l 172 821 l 172 922 l 1217 922 l 1217 -125 l 1115 -125 l 1115 -39 l 172 -39 l 172 64 z "},"サ":{"ha":1389,"x_min":86,"x_max":1303,"o":"m 344 64 l 603 64 l 603 149 l 774 149 l 774 235 l 860 235 l 860 407 l 946 407 l 946 735 l 446 735 l 446 306 l 344 306 l 344 735 l 86 735 l 86 836 l 344 836 l 344 1179 l 446 1179 l 446 836 l 946 836 l 946 1179 l 1046 1179 l 1046 836 l 1303 836 l 1303 735 l 1046 735 l 1046 392 l 960 392 l 960 221 l 875 221 l 875 135 l 789 135 l 789 49 l 617 49 l 617 -39 l 344 -39 l 344 64 z "},"シ":{"ha":1389,"x_min":129,"x_max":1258,"o":"m 472 993 l 300 993 l 300 1093 l 488 1093 l 488 1008 l 658 1008 l 658 922 l 744 922 l 744 821 l 643 821 l 643 907 l 472 907 l 472 993 m 215 64 l 472 64 l 472 149 l 729 149 l 729 235 l 901 235 l 901 321 l 986 321 l 986 407 l 1072 407 l 1072 579 l 1158 579 l 1158 836 l 1258 836 l 1258 564 l 1174 564 l 1174 392 l 1088 392 l 1088 306 l 1001 306 l 1001 221 l 915 221 l 915 135 l 744 135 l 744 49 l 488 49 l 488 -39 l 215 -39 l 215 64 m 300 735 l 129 735 l 129 836 l 315 836 l 315 750 l 488 750 l 488 664 l 572 664 l 572 564 l 472 564 l 472 650 l 300 650 l 300 735 z "},"ス":{"ha":1389,"x_min":86,"x_max":1303,"o":"m 86 64 l 260 64 l 260 149 l 431 149 l 431 235 l 603 235 l 603 321 l 688 321 l 688 407 l 774 407 l 774 579 l 860 579 l 860 750 l 946 750 l 946 907 l 174 907 l 174 1008 l 1046 1008 l 1046 735 l 960 735 l 960 564 l 875 564 l 875 407 l 960 407 l 960 321 l 1046 321 l 1046 235 l 1132 235 l 1132 149 l 1218 149 l 1218 64 l 1303 64 l 1303 -39 l 1203 -39 l 1203 49 l 1117 49 l 1117 135 l 1031 135 l 1031 221 l 946 221 l 946 306 l 860 306 l 860 392 l 789 392 l 789 306 l 703 306 l 703 221 l 617 221 l 617 135 l 446 135 l 446 49 l 274 49 l 274 -39 l 86 -39 l 86 64 z "},"セ":{"ha":1389,"x_min":128,"x_max":1260,"o":"m 386 650 l 315 650 l 315 564 l 128 564 l 128 664 l 301 664 l 301 750 l 386 750 l 386 1093 l 488 1093 l 488 750 l 644 750 l 644 836 l 901 836 l 901 922 l 1260 922 l 1260 650 l 1174 650 l 1174 478 l 1088 478 l 1088 392 l 1001 392 l 1001 306 l 917 306 l 917 221 l 729 221 l 729 321 l 901 321 l 901 407 l 988 407 l 988 493 l 1072 493 l 1072 664 l 1158 664 l 1158 821 l 917 821 l 917 735 l 658 735 l 658 650 l 488 650 l 488 64 l 1260 64 l 1260 -39 l 472 -39 l 472 49 l 386 49 l 386 650 z "},"ソ":{"ha":1389,"x_min":215,"x_max":1174,"o":"m 215 64 l 472 64 l 472 149 l 643 149 l 643 235 l 815 235 l 815 321 l 901 321 l 901 493 l 986 493 l 986 664 l 1072 664 l 1072 1008 l 1174 1008 l 1174 650 l 1088 650 l 1088 478 l 1001 478 l 1001 306 l 915 306 l 915 221 l 831 221 l 831 135 l 658 135 l 658 49 l 488 49 l 488 -39 l 215 -39 l 215 64 m 386 650 l 300 650 l 300 821 l 215 821 l 215 1008 l 315 1008 l 315 836 l 401 836 l 401 664 l 488 664 l 488 478 l 386 478 l 386 650 z "},"タ":{"ha":1389,"x_min":128,"x_max":1260,"o":"m 472 -22 l 472 64 l 729 64 l 729 149 l 815 149 l 815 306 l 729 306 l 729 392 l 558 392 l 558 478 l 472 478 l 472 579 l 574 579 l 574 493 l 744 493 l 744 407 l 831 407 l 831 321 l 988 321 l 988 407 l 1072 407 l 1072 579 l 1158 579 l 1158 821 l 574 821 l 574 735 l 488 735 l 488 650 l 401 650 l 401 564 l 315 564 l 315 478 l 231 478 l 231 392 l 128 392 l 128 493 l 215 493 l 215 579 l 301 579 l 301 664 l 386 664 l 386 750 l 472 750 l 472 836 l 558 836 l 558 1008 l 644 1008 l 644 1179 l 744 1179 l 744 993 l 658 993 l 658 922 l 1260 922 l 1260 564 l 1174 564 l 1174 392 l 1088 392 l 1088 306 l 1001 306 l 1001 221 l 917 221 l 917 135 l 831 135 l 831 49 l 744 49 l 744 -39 l 488 -39 l 488 -125 l 215 -125 l 215 -22 l 472 -22 z "},"チ":{"ha":1389,"x_min":86,"x_max":1303,"o":"m 344 -22 l 344 64 l 517 64 l 517 149 l 603 149 l 603 321 l 688 321 l 688 564 l 86 564 l 86 664 l 688 664 l 688 907 l 174 907 l 174 1008 l 688 1008 l 688 1093 l 1031 1093 l 1031 1179 l 1218 1179 l 1218 1079 l 1046 1079 l 1046 993 l 789 993 l 789 664 l 1303 664 l 1303 564 l 789 564 l 789 306 l 703 306 l 703 135 l 617 135 l 617 49 l 532 49 l 532 -39 l 360 -39 l 360 -125 l 174 -125 l 174 -22 l 344 -22 z "},"ツ":{"ha":1389,"x_min":128,"x_max":1260,"o":"m 301 64 l 558 64 l 558 149 l 729 149 l 729 235 l 901 235 l 901 321 l 988 321 l 988 493 l 1072 493 l 1072 664 l 1158 664 l 1158 1008 l 1260 1008 l 1260 650 l 1174 650 l 1174 478 l 1088 478 l 1088 306 l 1001 306 l 1001 221 l 917 221 l 917 135 l 744 135 l 744 49 l 574 49 l 574 -39 l 301 -39 l 301 64 m 644 735 l 558 735 l 558 907 l 472 907 l 472 1008 l 574 1008 l 574 922 l 658 922 l 658 750 l 744 750 l 744 564 l 644 564 l 644 735 m 301 650 l 215 650 l 215 821 l 128 821 l 128 922 l 231 922 l 231 836 l 315 836 l 315 664 l 401 664 l 401 478 l 301 478 l 301 650 z "},"テ":{"ha":1389,"x_min":86,"x_max":1303,"o":"m 174 1008 l 1218 1008 l 1218 907 l 174 907 l 174 1008 m 431 -22 l 431 64 l 517 64 l 517 149 l 603 149 l 603 321 l 688 321 l 688 564 l 86 564 l 86 664 l 1303 664 l 1303 564 l 789 564 l 789 306 l 703 306 l 703 135 l 617 135 l 617 49 l 532 49 l 532 -39 l 446 -39 l 446 -125 l 260 -125 l 260 -22 l 431 -22 z "},"ト":{"ha":1389,"x_min":257,"x_max":1131,"o":"m 257 1179 l 358 1179 l 358 750 l 529 750 l 529 664 l 788 664 l 788 579 l 958 579 l 958 493 l 1131 493 l 1131 392 l 943 392 l 943 478 l 772 478 l 772 564 l 515 564 l 515 650 l 358 650 l 358 -125 l 257 -125 l 257 1179 z "},"ナ":{"ha":1389,"x_min":86,"x_max":1303,"o":"m 344 -22 l 344 64 l 517 64 l 517 149 l 603 149 l 603 321 l 688 321 l 688 650 l 86 650 l 86 750 l 688 750 l 688 1179 l 789 1179 l 789 750 l 1303 750 l 1303 650 l 789 650 l 789 306 l 703 306 l 703 135 l 617 135 l 617 49 l 532 49 l 532 -39 l 360 -39 l 360 -125 l 174 -125 l 174 -22 l 344 -22 z "},"ニ":{"ha":1389,"x_min":129,"x_max":1258,"o":"m 215 922 l 1174 922 l 1174 821 l 215 821 l 215 922 m 129 64 l 1258 64 l 1258 -39 l 129 -39 l 129 64 z "},"ヌ":{"ha":1389,"x_min":128,"x_max":1260,"o":"m 128 64 l 301 64 l 301 149 l 472 149 l 472 235 l 644 235 l 644 321 l 729 321 l 729 478 l 644 478 l 644 564 l 472 564 l 472 650 l 386 650 l 386 750 l 488 750 l 488 664 l 658 664 l 658 579 l 744 579 l 744 493 l 901 493 l 901 579 l 988 579 l 988 664 l 1072 664 l 1072 836 l 1158 836 l 1158 993 l 301 993 l 301 1093 l 1260 1093 l 1260 821 l 1174 821 l 1174 650 l 1088 650 l 1088 564 l 1001 564 l 1001 478 l 917 478 l 917 407 l 1001 407 l 1001 321 l 1088 321 l 1088 235 l 1174 235 l 1174 135 l 1072 135 l 1072 221 l 988 221 l 988 306 l 744 306 l 744 221 l 658 221 l 658 135 l 488 135 l 488 49 l 315 49 l 315 -39 l 128 -39 l 128 64 z "},"ネ":{"ha":1389,"x_min":86,"x_max":1303,"o":"m 86 235 l 260 235 l 260 321 l 431 321 l 431 407 l 603 407 l 603 493 l 688 493 l 688 579 l 774 579 l 774 664 l 860 664 l 860 750 l 946 750 l 946 821 l 174 821 l 174 922 l 603 922 l 603 1179 l 703 1179 l 703 922 l 1132 922 l 1132 821 l 1046 821 l 1046 735 l 960 735 l 960 650 l 875 650 l 875 564 l 789 564 l 789 478 l 703 478 l 703 -125 l 603 -125 l 603 306 l 446 306 l 446 221 l 274 221 l 274 135 l 86 135 l 86 235 m 860 407 l 960 407 l 960 321 l 1132 321 l 1132 235 l 1218 235 l 1218 149 l 1303 149 l 1303 49 l 1203 49 l 1203 135 l 1117 135 l 1117 221 l 946 221 l 946 306 l 860 306 l 860 407 z "},"ノ":{"ha":1389,"x_min":215,"x_max":1174,"o":"m 215 64 l 386 64 l 386 149 l 558 149 l 558 235 l 729 235 l 729 321 l 815 321 l 815 407 l 901 407 l 901 579 l 988 579 l 988 750 l 1072 750 l 1072 1093 l 1174 1093 l 1174 735 l 1088 735 l 1088 564 l 1001 564 l 1001 392 l 917 392 l 917 306 l 831 306 l 831 221 l 744 221 l 744 135 l 574 135 l 574 49 l 401 49 l 401 -39 l 215 -39 l 215 64 z "},"ハ":{"ha":1389,"x_min":86,"x_max":1303,"o":"m 86 64 l 174 64 l 174 235 l 260 235 l 260 407 l 344 407 l 344 664 l 431 664 l 431 1008 l 532 1008 l 532 650 l 446 650 l 446 392 l 360 392 l 360 221 l 274 221 l 274 49 l 189 49 l 189 -39 l 86 -39 l 86 64 m 1117 478 l 1031 478 l 1031 650 l 946 650 l 946 821 l 860 821 l 860 1008 l 960 1008 l 960 836 l 1046 836 l 1046 664 l 1132 664 l 1132 493 l 1218 493 l 1218 235 l 1303 235 l 1303 49 l 1203 49 l 1203 221 l 1117 221 l 1117 478 z "},"ヒ":{"ha":1389,"x_min":215,"x_max":1174,"o":"m 215 1093 l 315 1093 l 315 579 l 472 579 l 472 664 l 729 664 l 729 750 l 901 750 l 901 836 l 1088 836 l 1088 735 l 915 735 l 915 650 l 744 650 l 744 564 l 488 564 l 488 478 l 315 478 l 315 64 l 1174 64 l 1174 -39 l 300 -39 l 300 49 l 215 49 l 215 1093 z "},"フ":{"ha":1389,"x_min":172,"x_max":1217,"o":"m 258 64 l 515 64 l 515 149 l 686 149 l 686 235 l 858 235 l 858 321 l 944 321 l 944 493 l 1029 493 l 1029 664 l 1115 664 l 1115 907 l 172 907 l 172 1008 l 1217 1008 l 1217 650 l 1131 650 l 1131 478 l 1044 478 l 1044 306 l 958 306 l 958 221 l 874 221 l 874 135 l 701 135 l 701 49 l 531 49 l 531 -39 l 258 -39 l 258 64 z "},"ヘ":{"ha":1389,"x_min":43,"x_max":1346,"o":"m 43 321 l 131 321 l 131 493 l 217 493 l 217 579 l 301 579 l 301 750 l 388 750 l 388 836 l 474 836 l 474 922 l 660 922 l 660 836 l 746 836 l 746 664 l 832 664 l 832 579 l 917 579 l 917 493 l 1003 493 l 1003 407 l 1089 407 l 1089 235 l 1175 235 l 1175 149 l 1260 149 l 1260 64 l 1346 64 l 1346 -39 l 1244 -39 l 1244 49 l 1160 49 l 1160 135 l 1074 135 l 1074 221 l 988 221 l 988 392 l 903 392 l 903 478 l 817 478 l 817 564 l 731 564 l 731 650 l 644 650 l 644 821 l 489 821 l 489 735 l 403 735 l 403 564 l 317 564 l 317 478 l 231 478 l 231 306 l 146 306 l 146 221 l 43 221 l 43 321 z "},"ホ":{"ha":1389,"x_min":86,"x_max":1303,"o":"m 688 -22 l 688 735 l 174 735 l 174 836 l 688 836 l 688 1179 l 789 1179 l 789 836 l 1303 836 l 1303 735 l 789 735 l 789 -39 l 703 -39 l 703 -125 l 431 -125 l 431 -22 l 688 -22 m 86 149 l 174 149 l 174 235 l 260 235 l 260 407 l 344 407 l 344 579 l 446 579 l 446 392 l 360 392 l 360 221 l 274 221 l 274 135 l 189 135 l 189 49 l 86 49 l 86 149 m 946 579 l 1046 579 l 1046 493 l 1132 493 l 1132 407 l 1218 407 l 1218 235 l 1303 235 l 1303 49 l 1203 49 l 1203 221 l 1117 221 l 1117 392 l 1031 392 l 1031 478 l 946 478 l 946 579 z "},"マ":{"ha":1389,"x_min":129,"x_max":1258,"o":"m 386 478 l 300 478 l 300 579 l 401 579 l 401 493 l 572 493 l 572 407 l 658 407 l 658 321 l 815 321 l 815 407 l 901 407 l 901 493 l 986 493 l 986 579 l 1072 579 l 1072 750 l 1158 750 l 1158 821 l 129 821 l 129 922 l 1258 922 l 1258 735 l 1174 735 l 1174 564 l 1088 564 l 1088 478 l 1001 478 l 1001 392 l 915 392 l 915 306 l 831 306 l 831 149 l 915 149 l 915 -39 l 815 -39 l 815 135 l 729 135 l 729 221 l 643 221 l 643 306 l 558 306 l 558 392 l 386 392 l 386 478 z "},"ミ":{"ha":1389,"x_min":215,"x_max":1174,"o":"m 301 1008 l 574 1008 l 574 922 l 917 922 l 917 836 l 1174 836 l 1174 735 l 901 735 l 901 821 l 558 821 l 558 907 l 301 907 l 301 1008 m 301 664 l 574 664 l 574 579 l 917 579 l 917 493 l 1088 493 l 1088 392 l 901 392 l 901 478 l 558 478 l 558 564 l 301 564 l 301 664 m 215 321 l 488 321 l 488 235 l 744 235 l 744 149 l 1001 149 l 1001 64 l 1174 64 l 1174 -39 l 988 -39 l 988 49 l 729 49 l 729 135 l 472 135 l 472 221 l 215 221 l 215 321 z "},"ム":{"ha":1389,"x_min":86,"x_max":1303,"o":"m 86 64 l 260 64 l 260 235 l 344 235 l 344 407 l 431 407 l 431 664 l 517 664 l 517 836 l 603 836 l 603 1093 l 703 1093 l 703 821 l 617 821 l 617 650 l 532 650 l 532 392 l 446 392 l 446 221 l 360 221 l 360 64 l 688 64 l 688 149 l 1117 149 l 1117 221 l 1031 221 l 1031 306 l 946 306 l 946 478 l 860 478 l 860 579 l 960 579 l 960 493 l 1046 493 l 1046 321 l 1132 321 l 1132 235 l 1218 235 l 1218 64 l 1303 64 l 1303 -125 l 1203 -125 l 1203 49 l 703 49 l 703 -39 l 86 -39 l 86 64 z "},"モ":{"ha":1389,"x_min":86,"x_max":1303,"o":"m 517 478 l 86 478 l 86 579 l 517 579 l 517 907 l 174 907 l 174 1008 l 1218 1008 l 1218 907 l 617 907 l 617 579 l 1303 579 l 1303 478 l 617 478 l 617 64 l 1218 64 l 1218 -39 l 603 -39 l 603 49 l 517 49 l 517 478 z "},"ヤ":{"ha":1389,"x_min":128,"x_max":1260,"o":"m 558 392 l 472 392 l 472 650 l 128 650 l 128 750 l 472 750 l 472 1179 l 574 1179 l 574 750 l 729 750 l 729 836 l 1260 836 l 1260 564 l 1174 564 l 1174 392 l 1088 392 l 1088 306 l 1001 306 l 1001 221 l 917 221 l 917 135 l 815 135 l 815 235 l 901 235 l 901 321 l 988 321 l 988 407 l 1072 407 l 1072 579 l 1158 579 l 1158 735 l 744 735 l 744 650 l 574 650 l 574 407 l 658 407 l 658 -125 l 558 -125 l 558 392 z "},"ユ":{"ha":1389,"x_min":86,"x_max":1303,"o":"m 86 64 l 946 64 l 946 579 l 1031 579 l 1031 907 l 174 907 l 174 1008 l 1132 1008 l 1132 564 l 1046 564 l 1046 64 l 1303 64 l 1303 -39 l 86 -39 l 86 64 z "},"ヨ":{"ha":1389,"x_min":172,"x_max":1217,"o":"m 172 149 l 1115 149 l 1115 478 l 258 478 l 258 579 l 1115 579 l 1115 907 l 172 907 l 172 1008 l 1217 1008 l 1217 -39 l 1115 -39 l 1115 49 l 172 49 l 172 149 z "},"ラ":{"ha":1389,"x_min":172,"x_max":1217,"o":"m 258 1093 l 1131 1093 l 1131 993 l 258 993 l 258 1093 m 686 -22 l 686 64 l 858 64 l 858 149 l 944 149 l 944 235 l 1029 235 l 1029 407 l 1115 407 l 1115 650 l 172 650 l 172 750 l 1217 750 l 1217 392 l 1131 392 l 1131 221 l 1044 221 l 1044 135 l 958 135 l 958 49 l 874 49 l 874 -39 l 701 -39 l 701 -125 l 258 -125 l 258 -22 l 686 -22 z "},"ル":{"ha":1389,"x_min":86,"x_max":1303,"o":"m 688 1093 l 789 1093 l 789 64 l 860 64 l 860 149 l 946 149 l 946 235 l 1031 235 l 1031 321 l 1117 321 l 1117 493 l 1203 493 l 1203 664 l 1303 664 l 1303 478 l 1218 478 l 1218 306 l 1132 306 l 1132 221 l 1046 221 l 1046 135 l 960 135 l 960 49 l 875 49 l 875 -39 l 688 -39 l 688 1093 m 86 64 l 174 64 l 174 149 l 260 149 l 260 321 l 344 321 l 344 579 l 431 579 l 431 1093 l 532 1093 l 532 564 l 446 564 l 446 306 l 360 306 l 360 135 l 274 135 l 274 49 l 189 49 l 189 -39 l 86 -39 l 86 64 z "},"ロ":{"ha":1389,"x_min":172,"x_max":1217,"o":"m 172 1008 l 1217 1008 l 1217 -39 l 1115 -39 l 1115 49 l 272 49 l 272 -39 l 172 -39 l 172 1008 m 1115 149 l 1115 907 l 272 907 l 272 149 l 1115 149 z "},"ワ":{"ha":1389,"x_min":172,"x_max":1217,"o":"m 515 -22 l 515 64 l 686 64 l 686 149 l 858 149 l 858 235 l 944 235 l 944 407 l 1029 407 l 1029 664 l 1115 664 l 1115 993 l 272 993 l 272 564 l 172 564 l 172 1093 l 1217 1093 l 1217 650 l 1131 650 l 1131 392 l 1044 392 l 1044 221 l 958 221 l 958 135 l 874 135 l 874 49 l 701 49 l 701 -39 l 531 -39 l 531 -125 l 258 -125 l 258 -22 l 515 -22 z "},"ヲ":{"ha":1389,"x_min":172,"x_max":1217,"o":"m 258 64 l 515 64 l 515 149 l 686 149 l 686 235 l 858 235 l 858 321 l 944 321 l 944 407 l 1029 407 l 1029 564 l 258 564 l 258 664 l 1115 664 l 1115 993 l 172 993 l 172 1093 l 1217 1093 l 1217 564 l 1131 564 l 1131 392 l 1044 392 l 1044 306 l 958 306 l 958 221 l 874 221 l 874 135 l 701 135 l 701 49 l 531 49 l 531 -39 l 258 -39 l 258 64 z "},"ン":{"ha":1389,"x_min":172,"x_max":1217,"o":"m 429 821 l 258 821 l 258 907 l 172 907 l 172 1008 l 272 1008 l 272 922 l 444 922 l 444 836 l 615 836 l 615 750 l 701 750 l 701 650 l 601 650 l 601 735 l 429 735 l 429 821 m 172 64 l 429 64 l 429 149 l 601 149 l 601 235 l 772 235 l 772 321 l 858 321 l 858 407 l 944 407 l 944 493 l 1029 493 l 1029 664 l 1115 664 l 1115 922 l 1217 922 l 1217 650 l 1131 650 l 1131 478 l 1044 478 l 1044 392 l 958 392 l 958 306 l 874 306 l 874 221 l 788 221 l 788 135 l 615 135 l 615 49 l 444 49 l 444 -39 l 172 -39 l 172 64 z "}}}
